<svg xmlns="http://www.w3.org/2000/svg" width="512" height="512" viewBox="0 0 512 512">
  <defs>
    <radialGradient id="stoneGradient" cx="50%" cy="40%" r="60%">
      <stop offset="0%" stop-color="#f4f0e6" />
      <stop offset="55%" stop-color="#d9cbb5" />
      <stop offset="100%" stop-color="#b6a186" />
    </radialGradient>
    <filter id="softShadow" x="-20%" y="-20%" width="140%" height="140%">
      <feGaussianBlur in="SourceAlpha" stdDeviation="12" result="shadow" />
      <feOffset dx="0" dy="12" result="offsetShadow" />
      <feMerge>
        <feMergeNode in="offsetShadow" />
        <feMergeNode in="SourceGraphic" />
      </feMerge>
    </filter>
    <linearGradient id="highlight" x1="30%" y1="20%" x2="70%" y2="80%">
      <stop offset="0%" stop-color="rgba(255,255,255,0.65)" />
      <stop offset="30%" stop-color="rgba(255,255,255,0.1)" />
      <stop offset="100%" stop-color="rgba(255,255,255,0)" />
    </linearGradient>
  </defs>
  <rect width="512" height="512" fill="none" />
  <g filter="url(#softShadow)">
    <path d="M120 280c0-110 76-200 170-200s170 76 170 190c0 96-60 160-170 160s-170-60-170-150z" fill="url(#stoneGradient)" />
    <path d="M180 210c0-42 44-96 114-96 86 0 138 66 138 138 0 42-16 70-44 96-46 44-206-15-208-138z" fill="url(#highlight)" />
  </g>
</svg>
