<svg xmlns="http://www.w3.org/2000/svg" viewBox="0 0 400 300" id="otterSvg">
  <defs>
    <linearGradient id="furGradient" x1="0%" y1="0%" x2="0%" y2="100%">
      <stop offset="0%" stop-color="#8D6E63"/>
      <stop offset="100%" stop-color="#5D4037"/>
    </linearGradient>
    <linearGradient id="bellyGradient" x1="0%" y1="0%" x2="0%" y2="100%">
      <stop offset="0%" stop-color="#D7CCC8"/>
      <stop offset="100%" stop-color="#BCAAA4"/>
    </linearGradient>
    <filter id="softShadow" x="-20%" y="-20%" width="140%" height="140%">
      <feGaussianBlur in="SourceAlpha" stdDeviation="3"/>
      <feOffset dx="2" dy="4" result="offsetblur"/>
      <feComponentTransfer>
        <feFuncA type="linear" slope="0.3"/>
      </feComponentTransfer>
      <feMerge>
        <feMergeNode/>
        <feMergeNode in="SourceGraphic"/>
      </feMerge>
    </filter>
  </defs>

  <g id="otterBodyGroup" filter="url(#softShadow)">
    <!-- Tail -->
    <path id="tail" d="M280,220 Q340,210 360,180 Q340,240 280,250 Z" fill="url(#furGradient)"/>

    <!-- Main Body -->
    <ellipse cx="200" cy="180" rx="90" ry="110" fill="url(#furGradient)"/>
    
    <!-- Belly Patch -->
    <ellipse cx="200" cy="190" rx="60" ry="80" fill="url(#bellyGradient)"/>

    <!-- Feet -->
    <g id="feet">
      <path d="M130,270 Q120,290 140,290 Q160,290 150,270" fill="#5D4037"/>
      <path d="M270,270 Q280,290 260,290 Q240,290 250,270" fill="#5D4037"/>
    </g>

    <!-- Arms -->
    <g id="arms">
      <path d="M120,180 Q100,220 140,220" fill="url(#furGradient)" stroke="#5D4037" stroke-width="1"/>
      <path d="M280,180 Q300,220 260,220" fill="url(#furGradient)" stroke="#5D4037" stroke-width="1"/>
    </g>

    <!-- Head -->
    <g id="head">
      <!-- Head Shape -->
      <circle cx="200" cy="100" r="70" fill="url(#furGradient)"/>
      
      <!-- Ears -->
      <g id="ears">
        <circle cx="140" cy="70" r="15" fill="#5D4037"/>
        <circle cx="260" cy="70" r="15" fill="#5D4037"/>
        <circle cx="140" cy="70" r="8" fill="#8D6E63"/>
        <circle cx="260" cy="70" r="8" fill="#8D6E63"/>
      </g>

      <!-- Face Patch -->
      <ellipse cx="200" cy="115" rx="50" ry="40" fill="#D7CCC8" opacity="0.9"/>

      <!-- Eyes -->
      <g id="eyes">
        <g id="eyeLeft">
          <circle cx="175" cy="100" r="8" fill="#3E2723"/>
          <circle cx="177" cy="98" r="3" fill="#FFFFFF"/>
        </g>
        <g id="eyeRight">
          <circle cx="225" cy="100" r="8" fill="#3E2723"/>
          <circle cx="227" cy="98" r="3" fill="#FFFFFF"/>
        </g>
      </g>

      <!-- Eyebrows -->
      <path id="leftBrow" d="M160,80 Q170,75 180,80" fill="none" stroke="#5D4037" stroke-width="4" stroke-linecap="round" opacity="0.9"/>
      <path id="rightBrow" d="M220,80 Q230,75 240,80" fill="none" stroke="#5D4037" stroke-width="4" stroke-linecap="round" opacity="0.9"/>

      <!-- Nose -->
      <path d="M190,120 Q200,115 210,120 Q200,135 190,120" fill="#3E2723"/>

      <!-- Mouth -->
      <path id="mouth" d="M190,130 Q200,140 210,130" fill="none" stroke="#3E2723" stroke-width="3" stroke-linecap="round"/>

      <!-- Whiskers -->
      <g stroke="#3E2723" stroke-width="1" opacity="0.6">
        <line x1="160" y1="120" x2="130" y2="115"/>
        <line x1="160" y1="125" x2="130" y2="125"/>
        <line x1="240" y1="120" x2="270" y2="115"/>
        <line x1="240" y1="125" x2="270" y2="125"/>
      </g>
      
      <!-- Blush (Hidden by default) -->
      <g id="blush" opacity="0">
         <circle cx="160" cy="125" r="10" fill="#FFAB91" opacity="0.6"/>
         <circle cx="240" cy="125" r="10" fill="#FFAB91" opacity="0.6"/>
      </g>

      <!-- Sunglasses (toggle) -->
      <g id="sunglassesItem" opacity="0">
        <rect x="148" y="86" width="46" height="28" rx="8" fill="#2C2C2C" stroke="#555" stroke-width="2"/>
        <rect x="206" y="86" width="46" height="28" rx="8" fill="#2C2C2C" stroke="#555" stroke-width="2"/>
        <line x1="194" y1="100" x2="206" y2="100" stroke="#2C2C2C" stroke-width="4"/>
        <line x1="148" y1="100" x2="132" y2="94" stroke="#2C2C2C" stroke-width="4"/>
        <line x1="252" y1="100" x2="268" y2="94" stroke="#2C2C2C" stroke-width="4"/>
      </g>

      <!-- Food Item (shown during anim) -->
      <g id="foodItem" opacity="0" transform="translate(200, 150)">
        <circle r="12" fill="#FF7043" stroke="#E64A19" stroke-width="2"/>
      </g>
    </g>
  </g>

  <!-- Scarf (toggle) -->
  <g id="scarfItem" opacity="0">
    <path d="M150,140 Q200,160 250,140 Q260,155 250,165 Q200,185 150,165 Q140,155 150,140" fill="#EF5350"/>
    <path d="M170,160 L170,205 L195,205 L195,160" fill="#EF5350"/>
    <line x1="170" y1="198" x2="195" y2="198" stroke="#B71C1C" stroke-width="3"/>
  </g>
</svg>
